<?xml version="1.0" encoding="utf-8"?>
<!-- Generator: Adobe Illustrator 25.2.0, SVG Export Plug-In . SVG Version: 6.00 Build 0)  -->
<svg version="1.1" id="Layer_1" xmlns="http://www.w3.org/2000/svg" xmlns:xlink="http://www.w3.org/1999/xlink" x="0px" y="0px"
	 viewBox="0 0 924 1080" style="enable-background:new 0 0 924 1080;" xml:space="preserve">
<style type="text/css">
	.st0{fill:url(#SVGID_1_);}
	.st1{opacity:0.78;fill:url(#SVGID_2_);}
	.st2{opacity:0.78;fill:url(#SVGID_3_);}
	.st3{opacity:0.78;fill:url(#SVGID_4_);}
</style>
<g>
	<linearGradient id="SVGID_1_" gradientUnits="userSpaceOnUse" x1="135.8764" y1="540.2468" x2="788.4872" y2="540.2468">
		<stop  offset="0" style="stop-color:#60605B"/>
		<stop  offset="0.4939" style="stop-color:#FFFFFF"/>
		<stop  offset="1" style="stop-color:#35342E"/>
	</linearGradient>
	<path class="st0" d="M462.18,966L462.18,966L462.18,966C258.72,834.28,135.88,608.41,135.88,366.03V210.09
		c52.8,0,95.6-42.8,95.6-95.6h461.41c0,52.8,42.8,95.6,95.6,95.6v155.94C788.49,608.41,665.65,834.28,462.18,966z"/>
	<linearGradient id="SVGID_2_" gradientUnits="userSpaceOnUse" x1="160.5332" y1="537.7798" x2="763.8301" y2="537.7798">
		<stop  offset="0" style="stop-color:#0F2027"/>
		<stop  offset="0.5279" style="stop-color:#203A43"/>
		<stop  offset="1" style="stop-color:#2C5364"/>
	</linearGradient>
	<path class="st1" d="M462.18,936.41l-2.26-1.55C413.48,903,371.08,865.63,333.9,823.78c-36.71-41.32-68.38-87.04-94.11-135.89
		c-25.75-48.88-45.57-100.9-58.89-154.61c-13.51-54.46-20.36-110.73-20.36-167.24V232.25l3.08-0.73
		c43.85-10.39,78.9-45.44,89.29-89.3l0.73-3.08h417.1l0.73,3.08c10.39,43.85,45.44,78.9,89.29,89.3l3.08,0.73v133.79
		c0,56.51-6.85,112.78-20.36,167.24c-13.33,53.71-33.14,105.73-58.89,154.61c-25.73,48.85-57.4,94.57-94.11,135.89
		c-37.18,41.85-79.58,79.22-126.02,111.08L462.18,936.41z M168.53,238.53v127.5c0,224,109.72,433.39,293.65,560.67
		c183.92-127.28,293.65-336.66,293.65-560.67v-127.5c-44.3-11.69-79.69-47.08-91.38-91.39H259.92
		C248.22,191.45,212.84,226.84,168.53,238.53z"/>
	<linearGradient id="SVGID_3_" gradientUnits="userSpaceOnUse" x1="228.3974" y1="465.3497" x2="695.9662" y2="465.3497">
		<stop  offset="0" style="stop-color:#0F2027"/>
		<stop  offset="0.5279" style="stop-color:#203A43"/>
		<stop  offset="1" style="stop-color:#2C5364"/>
	</linearGradient>
	<path class="st2" d="M575.95,588.93c-0.04,0.01,6.86,6.8,6.63,16.3c-0.12,4.66-2,9.07-3.93,12.31c4.78-4.74,9.38-9.62,13.81-14.62
		c-1.77-2.12-5.92-8.01-6.21-15.37c-0.34-9.26,5.25-17.62,5.24-17.66c-0.03,0.01,7.4,6.2,8.01,15.63c0.29,4.65-1.21,9.2-2.84,12.57
		c4.33-5.09,8.49-10.3,12.47-15.61c-1.93-1.95-6.59-7.47-7.52-14.76c-1.15-9.15,3.69-17.89,3.68-17.93
		c-0.03,0.02,7.89,5.57,9.31,14.87c0.69,4.62-0.42,9.28-1.76,12.76c3.88-5.4,7.57-10.91,11.08-16.52c-2.07-1.77-7.2-6.89-8.75-14.06
		c-1.92-8.99,2.16-18.05,2.15-18.08c-0.03,0.02,8.32,4.9,10.52,14.02c1.09,4.56,0.36,9.31-0.69,12.87
		c3.41-5.69,6.63-11.47,9.67-17.33c-2.2-1.58-7.76-6.26-9.91-13.28c-2.67-8.77,0.65-18.1,0.63-18.13
		c-0.03,0.02,8.69,4.2,11.64,13.09c1.47,4.48,1.12,9.28,0.37,12.92c2.93-5.94,5.67-11.96,8.21-18.06
		c-2.31-1.38-8.25-5.59-10.98-12.41c-3.38-8.51-0.84-18.05-0.86-18.09c-0.03,0.02,9,3.48,12.67,12.08
		c1.85,4.37,1.89,9.21,1.42,12.89c2.44-6.16,4.68-12.4,6.73-18.69c-2.41-1.18-8.69-4.89-11.98-11.47
		c-4.06-8.19-2.31-17.9-2.33-17.94c-0.02,0.02,9.26,2.74,13.61,11.01c2.22,4.23,2.64,9.09,2.47,12.8c1.93-6.35,3.67-12.77,5.2-19.23
		c-2.48-0.97-9.07-4.15-12.89-10.47c-4.72-7.83-3.76-17.66-3.78-17.7c-0.02,0.03,9.45,1.98,14.46,9.87
		c2.57,4.07,3.38,8.91,3.5,12.63c1.42-6.51,2.63-13.07,3.64-19.67c-2.53-0.76-9.39-3.39-13.72-9.4c-5.34-7.43-5.18-17.33-5.21-17.36
		c-0.02,0.03,9.58,1.2,15.22,8.67c2.91,3.88,4.11,8.69,4.53,12.4c0.89-6.64,1.57-13.31,2.04-20.01c-2.57-0.55-9.64-2.61-14.46-8.27
		c-5.92-6.99-6.58-16.9-6.61-16.94c-0.02,0.03,9.65,0.42,15.87,7.43c3.24,3.66,4.82,8.42,5.54,12.11c0.35-6.73,0.48-13.49,0.4-20.25
		c-2.59-0.33-9.83-1.81-15.11-7.09c-6.48-6.51-7.95-16.39-7.99-16.42c-0.02,0.03,9.65-0.37,16.44,6.14
		c3.56,3.43,5.53,8.1,6.54,11.75c-0.2-6.8-0.63-13.6-1.27-20.4c-2.6-0.12-9.95-1-15.66-5.87c-7-5.99-9.3-15.8-9.34-15.83
		c-0.01,0.03,9.59-1.17,16.9,4.81c3.86,3.17,6.22,7.74,7.53,11.32c-0.77-6.83-1.77-13.65-2.99-20.45c-2.29-2.51-6.88-8.1-8.59-15.33
		c-2.28-9.71,1.37-19.44,1.37-19.48c-0.02-0.05,8.58,6.28,11,16.55c1.83,7.72-0.49,15.03-1.76,18.05c1.18,6.59,2.15,13.2,2.91,19.81
		c0.52-3.72,1.62-8.46,4.17-12.58c5.07-8.23,14.28-10.79,14.31-10.77c0.03-0.03,1.44,11.81-3.97,20.06
		c-4.28,6.56-11.24,8.8-13.86,9.48c0.64,6.7,1.06,13.4,1.27,20.09c0.82-3.66,2.31-8.3,5.21-12.19c5.74-7.73,15.14-9.51,15.16-9.48
		c0.04-0.03,0.45,11.8-5.62,19.53c-4.82,6.16-11.97,7.81-14.61,8.26c0.08,6.71-0.05,13.41-0.39,20.09
		c1.11-3.57,2.98-8.09,6.22-11.74c6.35-7.19,15.87-8.19,15.89-8.16c0.04-0.03-0.52,11.73-7.21,18.9c-5.32,5.73-12.6,6.77-15.26,7
		c-0.47,6.69-1.15,13.36-2.03,20c1.4-3.47,3.64-7.85,7.18-11.22c6.92-6.62,16.48-6.83,16.5-6.8c0.04-0.02-1.48,11.6-8.72,18.18
		c-5.78,5.27-13.14,5.7-15.8,5.71c-1.01,6.64-2.23,13.24-3.66,19.8c1.67-3.36,4.27-7.56,8.1-10.65c7.43-6.02,16.98-5.45,16.99-5.42
		c0.04-0.02-2.41,11.41-10.17,17.37c-6.2,4.79-13.6,4.6-16.23,4.4c-1.55,6.55-3.31,13.06-5.28,19.5c1.94-3.22,4.88-7.24,8.98-10.03
		c7.9-5.39,17.36-4.04,17.38-4.01c0.04-0.02-3.33,11.17-11.54,16.48c-6.59,4.28-13.96,3.48-16.55,3.06
		c-2.09,6.43-4.38,12.8-6.88,19.09c2.2-3.07,5.47-6.88,9.82-9.34c8.31-4.74,17.64-2.62,17.65-2.59c0.04-0.02-4.23,10.87-12.85,15.5
		c-6.93,3.75-14.24,2.34-16.77,1.71c-2.62,6.27-5.44,12.47-8.47,18.58c2.45-2.9,6.05-6.48,10.62-8.6c8.67-4.06,17.8-1.19,17.8-1.16
		c0.05-0.01-5.11,10.51-14.09,14.45c-7.24,3.19-14.43,1.18-16.88,0.35c-3.15,6.08-6.49,12.07-10.04,17.96
		c2.69-2.72,6.6-6.04,11.37-7.81c8.99-3.36,17.85,0.24,17.85,0.27c0.05-0.01-5.97,10.09-15.26,13.31
		c-7.51,2.62-14.53,0.02-16.89-1.01c-3.67,5.86-7.54,11.61-11.6,17.24c2.92-2.52,7.14-5.56,12.08-6.97c9.26-2.65,17.8,1.67,17.8,1.7
		c0.05-0.01-6.81,9.62-16.37,12.11c-7.75,2.03-14.55-1.16-16.8-2.36c-4.19,5.59-8.57,11.07-13.14,16.41
		c3.14-2.3,7.65-5.05,12.76-6.07c9.48-1.92,17.64,3.08,17.63,3.12c0.05,0-7.64,9.1-17.41,10.83c-7.94,1.43-14.49-2.33-16.61-3.7
		c-4.7,5.3-9.59,10.46-14.67,15.47c3.36-2.07,8.15-4.5,13.39-5.13c9.66-1.17,17.37,4.48,17.37,4.51c0.05,0-8.44,8.51-18.39,9.48
		c-9.9,0.97-16.99-5.62-17-5.59c0,0,0.05-0.04,0.13-0.11c-0.01,0-0.01-0.01-0.02-0.01c-0.07,0.08-0.11,0.12-0.11,0.12
		c-0.04,0.01-6-7.47-5.52-16.82C569.63,596.91,575.96,588.97,575.95,588.93z M348.41,588.93c0.04,0.01-6.86,6.8-6.63,16.3
		c0.12,4.66,2,9.07,3.93,12.31c-4.78-4.74-9.38-9.62-13.81-14.62c1.77-2.12,5.92-8.01,6.21-15.37c0.34-9.26-5.25-17.62-5.24-17.66
		c0.03,0.01-7.4,6.2-8.01,15.63c-0.29,4.65,1.21,9.2,2.84,12.57c-4.33-5.09-8.49-10.3-12.47-15.61c1.93-1.95,6.59-7.47,7.52-14.76
		c1.15-9.15-3.69-17.89-3.68-17.93c0.03,0.02-7.89,5.57-9.31,14.87c-0.69,4.62,0.42,9.28,1.76,12.76
		c-3.88-5.4-7.57-10.91-11.08-16.52c2.07-1.77,7.2-6.89,8.75-14.06c1.92-8.99-2.16-18.05-2.15-18.08c0.03,0.02-8.32,4.9-10.52,14.02
		c-1.09,4.56-0.36,9.31,0.69,12.87c-3.41-5.69-6.63-11.47-9.67-17.33c2.2-1.58,7.76-6.26,9.91-13.28c2.67-8.77-0.65-18.1-0.63-18.13
		c0.03,0.02-8.69,4.2-11.64,13.09c-1.47,4.48-1.12,9.28-0.37,12.92c-2.93-5.94-5.67-11.96-8.21-18.06
		c2.31-1.38,8.25-5.59,10.98-12.41c3.38-8.51,0.84-18.05,0.86-18.09c0.03,0.02-9,3.48-12.67,12.08c-1.85,4.37-1.89,9.21-1.42,12.89
		c-2.44-6.16-4.68-12.4-6.73-18.69c2.4-1.18,8.69-4.89,11.98-11.47c4.06-8.19,2.31-17.9,2.33-17.94c0.02,0.02-9.26,2.74-13.61,11.01
		c-2.22,4.23-2.64,9.09-2.47,12.8c-1.93-6.35-3.67-12.77-5.2-19.23c2.48-0.97,9.07-4.15,12.89-10.47c4.72-7.83,3.76-17.66,3.78-17.7
		c0.02,0.03-9.45,1.98-14.46,9.87c-2.57,4.07-3.38,8.91-3.5,12.63c-1.42-6.51-2.63-13.07-3.64-19.67c2.53-0.76,9.39-3.39,13.72-9.4
		c5.34-7.43,5.18-17.33,5.21-17.36c0.02,0.03-9.58,1.2-15.22,8.67c-2.91,3.88-4.11,8.69-4.53,12.4c-0.89-6.64-1.57-13.31-2.04-20.01
		c2.57-0.55,9.64-2.61,14.46-8.27c5.92-6.99,6.58-16.9,6.61-16.94c0.02,0.03-9.65,0.42-15.87,7.43c-3.24,3.66-4.82,8.42-5.54,12.11
		c-0.35-6.73-0.48-13.49-0.4-20.25c2.59-0.33,9.83-1.81,15.11-7.09c6.48-6.51,7.95-16.39,7.99-16.42c0.02,0.03-9.65-0.37-16.44,6.14
		c-3.56,3.43-5.53,8.1-6.54,11.75c0.2-6.8,0.63-13.6,1.27-20.4c2.6-0.12,9.95-1,15.66-5.87c7-5.99,9.3-15.8,9.34-15.83
		c0.01,0.03-9.59-1.17-16.9,4.81c-3.86,3.17-6.22,7.74-7.53,11.32c0.77-6.83,1.77-13.65,2.99-20.45c2.29-2.51,6.88-8.1,8.59-15.33
		c2.28-9.71-1.37-19.44-1.37-19.48c0.02-0.05-8.58,6.28-11,16.55c-1.83,7.72,0.49,15.03,1.75,18.05c-1.18,6.59-2.15,13.2-2.91,19.81
		c-0.52-3.72-1.62-8.46-4.17-12.58c-5.07-8.23-14.28-10.79-14.31-10.77c-0.03-0.03-1.45,11.81,3.97,20.06
		c4.28,6.56,11.24,8.8,13.86,9.48c-0.64,6.7-1.06,13.4-1.27,20.09c-0.82-3.66-2.31-8.3-5.21-12.19c-5.74-7.73-15.14-9.51-15.16-9.48
		c-0.04-0.03-0.45,11.8,5.62,19.53c4.82,6.16,11.97,7.81,14.61,8.26c-0.08,6.71,0.05,13.41,0.39,20.09
		c-1.11-3.57-2.98-8.09-6.22-11.74c-6.35-7.19-15.87-8.19-15.89-8.16c-0.04-0.03,0.52,11.73,7.21,18.9c5.32,5.73,12.6,6.77,15.26,7
		c0.47,6.69,1.15,13.36,2.03,20c-1.4-3.47-3.64-7.85-7.18-11.22c-6.92-6.62-16.48-6.83-16.5-6.8c-0.04-0.02,1.48,11.6,8.72,18.18
		c5.78,5.27,13.14,5.7,15.8,5.71c1.01,6.64,2.23,13.24,3.66,19.8c-1.67-3.36-4.27-7.56-8.1-10.65c-7.43-6.02-16.98-5.45-16.99-5.42
		c-0.04-0.02,2.41,11.41,10.17,17.37c6.2,4.79,13.6,4.6,16.23,4.4c1.55,6.55,3.31,13.06,5.28,19.5c-1.94-3.22-4.88-7.24-8.98-10.03
		c-7.9-5.39-17.37-4.04-17.38-4.01c-0.04-0.02,3.33,11.17,11.54,16.48c6.59,4.28,13.96,3.48,16.55,3.06
		c2.09,6.43,4.38,12.8,6.88,19.09c-2.2-3.07-5.47-6.88-9.82-9.34c-8.31-4.74-17.64-2.62-17.65-2.59
		c-0.04-0.02,4.23,10.87,12.85,15.5c6.93,3.75,14.24,2.34,16.77,1.71c2.62,6.27,5.44,12.47,8.47,18.58
		c-2.45-2.9-6.05-6.48-10.62-8.6c-8.67-4.06-17.8-1.19-17.8-1.16c-0.05-0.01,5.11,10.51,14.09,14.45
		c7.24,3.19,14.43,1.18,16.88,0.35c3.15,6.08,6.49,12.07,10.04,17.96c-2.69-2.72-6.6-6.04-11.37-7.81
		c-8.99-3.36-17.85,0.24-17.85,0.27c-0.05-0.01,5.97,10.09,15.26,13.31c7.51,2.62,14.53,0.02,16.89-1.01
		c3.67,5.86,7.54,11.61,11.6,17.24c-2.92-2.52-7.14-5.56-12.08-6.97c-9.26-2.65-17.8,1.67-17.8,1.7
		c-0.05-0.01,6.81,9.62,16.37,12.11c7.75,2.03,14.55-1.16,16.8-2.36c4.19,5.59,8.57,11.07,13.14,16.41
		c-3.14-2.3-7.65-5.05-12.76-6.07c-9.48-1.92-17.64,3.08-17.63,3.12c-0.05,0,7.63,9.1,17.41,10.83c7.94,1.43,14.49-2.33,16.61-3.7
		c4.7,5.3,9.59,10.46,14.67,15.47c-3.36-2.07-8.15-4.5-13.39-5.13c-9.66-1.17-17.37,4.48-17.37,4.51c-0.05,0,8.44,8.51,18.39,9.48
		c9.9,0.97,17-5.62,17-5.59c0,0-0.05-0.04-0.13-0.11c0.01,0,0.01-0.01,0.02-0.01c0.07,0.08,0.11,0.12,0.11,0.12
		c0.04,0.01,6-7.47,5.52-16.82C354.74,596.91,348.41,588.97,348.41,588.93z"/>
	<linearGradient id="SVGID_4_" gradientUnits="userSpaceOnUse" x1="384.8965" y1="516.4639" x2="536.042" y2="516.4639">
		<stop  offset="0" style="stop-color:#0F2027"/>
		<stop  offset="0.5279" style="stop-color:#203A43"/>
		<stop  offset="1" style="stop-color:#2C5364"/>
	</linearGradient>
	<path class="st3" d="M481.53,228.76l54.51,151.83h-33.88l-11.29-32.76h-62.11l-11.73,32.76H384.9l56.68-151.83H481.53z
		 M482.4,323.26l-21.72-64.68l-23.24,64.68H482.4z M445.59,463.96H398.9v-25.2h127.26v25.2h-46.69V590.6h-33.88V463.96z
		 M493.15,698.32c-0.65-5.25-2.61-26.67-25.41-26.67c-24.97,0-35.4,25.2-35.4,56.49c0,9.03,0,52.08,32.79,52.08
		c14.12,0,27.58-8.61,28.23-28.77h35.4c-0.65,9.03-1.52,23.1-14.12,35.7c-13.9,13.86-31.49,17.01-45.82,17.01
		c-54.07,0-71.66-38.64-71.66-76.23c0-48.09,27.8-80.01,71.88-80.01c34.31,0,58.42,20.16,58.42,50.4H493.15z"/>
</g>
</svg>
